<?xml version="1.0" encoding="iso-8859-1"?>
<!-- Generator: Adobe Illustrator 19.0.0, SVG Export Plug-In . SVG Version: 6.00 Build 0)  -->
<svg version="1.1" id="Capa_1" xmlns="http://www.w3.org/2000/svg" xmlns:xlink="http://www.w3.org/1999/xlink" x="0px" y="0px"
	 viewBox="0 0 512.007 512.007" style="enable-background:new 0 0 512.007 512.007;" xml:space="preserve">
<g>
	<g>
		<path d="M292.417,0.967c-3.797-1.749-8.299-1.088-11.435,1.685L113.323,149.34H32.001c-17.643,0-32,14.357-32,32v149.333
			c0,17.643,14.357,32,32,32h81.323l167.659,146.688c1.984,1.749,4.48,2.645,7.019,2.645c1.493,0,3.008-0.32,4.416-0.96
			c3.797-1.728,6.251-5.525,6.251-9.707V10.674C298.667,6.492,296.214,2.695,292.417,0.967z"/>
	</g>
</g>
<g>
	<g>
		<path d="M508.886,323.143l-67.136-67.136l67.115-67.115c4.16-4.16,4.16-10.923,0-15.083c-4.16-4.16-10.923-4.16-15.083,0
			l-67.115,67.115l-67.115-67.115c-4.16-4.16-10.923-4.16-15.083,0c-4.16,4.16-4.16,10.923,0,15.083l67.115,67.115l-67.115,67.115
			c-4.16,4.16-4.16,10.923,0,15.083c2.069,2.091,4.8,3.136,7.531,3.136c2.731,0,5.461-1.045,7.552-3.115l67.115-67.136
			l67.115,67.115c2.091,2.091,4.821,3.136,7.552,3.136c2.731,0,5.461-1.045,7.552-3.115
			C513.046,334.065,513.046,327.303,508.886,323.143z"/>
	</g></g><g></g><g></g><g></g><g></g><g></g><g></g><g></g><g></g><g></g><g></g><g></g><g></g><g></g><g></g><g></g>
	</svg>
